<svg width="532" height="343" viewBox="0 0 532 343" fill="none" xmlns="http://www.w3.org/2000/svg">
<g clip-path="url(#clip0)">
<path d="M267.707 343C411.963 343 528.906 333.821 528.906 322.498C528.906 311.174 411.963 301.995 267.707 301.995C123.451 301.995 6.50818 311.174 6.50818 322.498C6.50818 333.821 123.451 343 267.707 343Z" fill="#F2F2F2"/>
<path d="M414.111 104C371.555 104 341 136.372 341 211.907C341 297.513 371.555 320.174 414.111 320.174C456.668 320.174 489.043 295.355 489.043 211.907C489.043 122.704 456.668 104 414.111 104ZM414.391 291.758C384.916 291.758 369.516 271.255 369.516 211.962C369.516 159.645 385.546 132.056 415.022 132.056C444.497 132.056 460.527 150.178 460.527 211.962C460.527 269.761 443.867 291.758 414.391 291.758Z" fill="#3590F0"/>
<path d="M257.696 98.0508C215.14 98.0508 184.585 130.423 184.585 205.958C184.585 291.564 215.14 314.225 257.696 314.225C300.252 314.225 332.628 289.406 332.628 205.958C332.628 116.755 300.252 98.0508 257.696 98.0508ZM257.976 285.809C228.5 285.809 213.101 265.306 213.101 206.013C213.101 153.696 229.131 126.107 258.606 126.107C288.082 126.107 304.111 144.229 304.111 206.013C304.111 263.811 287.451 285.809 257.976 285.809Z" fill="#3590F0"/>
<path d="M233.292 18.289C236.82 18.289 239.68 14.8979 239.68 10.7148C239.68 6.53164 236.82 3.14053 233.292 3.14053C229.764 3.14053 226.904 6.53164 226.904 10.7148C226.904 14.8979 229.764 18.289 233.292 18.289Z" fill="#2F2E41"/>
<path d="M248.873 55.0518C258.769 55.0518 266.791 42.728 266.791 27.5259C266.791 12.3238 258.769 0 248.873 0C238.977 0 230.955 12.3238 230.955 27.5259C230.955 42.728 238.977 55.0518 248.873 55.0518Z" fill="#2F2E41"/>
<path opacity="0.1" d="M248.873 46.7386C239.897 46.7386 232.463 36.5991 231.158 23.3693C231.022 24.749 230.955 26.1369 230.955 27.5259C230.955 42.728 238.977 55.0518 248.873 55.0518C258.769 55.0518 266.791 42.728 266.791 27.5259C266.791 26.1369 266.724 24.749 266.588 23.3693C265.283 36.5991 257.849 46.7386 248.873 46.7386Z" fill="black"/>
<path d="M285.334 108.137C284.949 110.011 283.29 111.513 281.453 112.562C277.59 114.768 272.824 115.426 268.202 115.647C267.023 115.732 265.84 115.706 264.665 115.569C262.386 115.308 260.249 114.143 258.599 112.263C258.481 112.172 258.384 112.047 258.318 111.9C258.252 111.753 258.219 111.588 258.221 111.421C258.223 111.254 258.261 111.091 258.331 110.946C258.4 110.802 258.5 110.68 258.62 110.593C261.081 107.389 265.187 105.423 269.324 104.009C272.46 102.936 277.93 100.157 281.351 100.532C284.665 100.895 285.82 105.769 285.334 108.137Z" fill="#3F3D56"/>
<path opacity="0.1" d="M285.334 108.137C284.949 110.011 283.29 111.513 281.453 112.562C277.59 114.768 272.824 115.426 268.202 115.647C267.023 115.732 265.84 115.706 264.665 115.569C262.386 115.308 260.249 114.143 258.599 112.263C258.481 112.172 258.384 112.047 258.318 111.9C258.252 111.753 258.219 111.588 258.221 111.421C258.223 111.254 258.261 111.091 258.331 110.946C258.4 110.802 258.5 110.68 258.62 110.593C261.081 107.389 265.187 105.423 269.324 104.009C272.46 102.936 277.93 100.157 281.351 100.532C284.665 100.895 285.82 105.769 285.334 108.137Z" fill="black"/>
<path d="M236.215 94.1241C235.036 96.8644 234.822 100.048 235.621 102.974C236.434 105.879 237.956 108.433 239.993 110.311C244.992 115.062 251.871 115.716 258.277 115.65C263.891 115.592 269.497 115.136 275.066 114.285C276.932 114.089 278.765 113.584 280.513 112.786C282.604 111.713 284.441 109.746 285.186 107.193C285.93 104.64 285.402 101.514 283.634 99.8108C282.081 98.3139 279.939 98.108 277.941 97.9657L266.508 97.1511C267.638 95.7958 269.142 95.0293 270.517 94.0441C272.342 92.7369 273.554 90.5423 274.881 88.5637C276.925 85.6668 279.15 82.9552 281.535 80.4518C281.907 82.9824 283.258 85.0604 284.847 86.8065C286.436 88.5526 288.267 89.9583 289.919 91.6208C293.919 95.6473 296.8 101.112 301.007 104.831C303.901 103.929 306.607 102.328 308.954 100.127L307.319 96.6151C307.182 96.2537 306.97 95.9398 306.702 95.7034C306.239 95.3659 305.643 95.5398 305.105 95.4443C303.669 95.1889 303.042 93.2227 302.478 91.6356C300.931 87.2783 297.968 83.8977 295.438 80.2437C293.57 77.5463 291.914 74.6532 290.488 71.5999C289.638 69.779 288.86 67.883 287.707 66.3142C286.553 64.7454 284.937 63.512 283.182 63.5076C281.631 63.5037 280.2 64.4373 278.867 65.3763C274.805 68.2367 270.897 71.3933 267.166 74.828C265.213 76.6255 263.272 78.5246 260.982 79.6269C260.017 80.0909 259.001 80.408 258.075 80.9726C256.455 81.9615 255.225 83.6347 253.901 85.12C249.178 90.4174 242.712 93.8497 236.215 94.1241Z" fill="#3F3D56"/>
<path d="M260.119 56.4188C260.066 58.0381 259.776 59.634 259.261 61.1352C259 61.8838 258.612 62.5607 258.12 63.1236C257.629 63.6865 257.045 64.1233 256.405 64.4069C255.496 64.6956 254.543 64.7322 253.621 64.514C252.816 64.4143 252.04 64.1012 251.352 63.5977C250.28 62.7239 249.746 61.1647 249.551 59.6388C249.356 58.1147 249.443 56.5573 249.319 55.0222C249.197 53.7822 248.998 52.5546 248.723 51.3496C248.639 50.9487 248.554 50.5497 248.469 50.1507C248.387 49.7516 248.306 49.3526 248.231 48.9536C248.162 48.5786 248.099 48.2017 248.044 47.823C247.999 47.5034 247.958 47.1819 247.929 46.8586C247.901 45.9002 247.767 44.9504 247.528 44.034C247.304 43.4397 247.024 42.8776 246.693 42.3584C246.551 42.1183 246.414 41.8781 246.288 41.6287C245.923 40.9806 245.753 40.2053 245.807 39.4285C245.822 39.3084 245.846 39.1903 245.88 39.0757C245.892 39.0313 245.906 38.987 245.922 38.9445C246.062 38.8994 246.191 38.8144 246.297 38.6969C246.403 38.5793 246.484 38.4329 246.531 38.2702C246.585 37.9207 246.559 37.5606 246.458 37.2264C246.342 36.7594 246.182 36.3091 245.983 35.8834C245.852 35.6026 245.408 35.0964 245.405 34.7749C245.398 34.1284 246.464 33.6074 246.896 33.3524C248.213 32.5703 249.682 32.2171 251.152 32.329C252.095 32.4047 253.117 32.7484 253.638 33.685C254.105 34.5292 254.043 35.6229 254.242 36.6038C254.263 36.7464 254.314 36.8805 254.39 36.9936C254.492 37.1035 254.62 37.1732 254.756 37.1931C254.987 37.2476 255.224 37.2588 255.458 37.2264H255.459C255.521 37.2206 255.582 37.2101 255.643 37.195C256.007 37.1154 256.351 36.9392 256.649 36.6796C256.843 36.6186 257.037 36.5687 257.234 36.5299C257.242 36.529 257.25 36.5271 257.257 36.5244C258.038 39.4451 258.139 42.5764 258.778 45.5507C259.094 47.0304 259.548 48.4917 259.611 50.0139C259.616 50.0804 259.618 50.1488 259.619 50.2171C259.629 50.7067 259.596 51.1999 259.613 51.6876C259.619 51.9073 259.64 52.1259 259.675 52.3416C259.745 52.6885 259.832 53.0302 259.936 53.3651L259.94 53.3817C259.97 53.4888 259.998 53.5978 260.021 53.7068C260.038 53.7863 260.054 53.8639 260.066 53.9433L260.068 53.9488C260.183 54.7651 260.201 55.5967 260.119 56.4188V56.4188Z" fill="#FBBEBE"/>
<path d="M249.185 37.317C254.262 37.317 258.377 32.4371 258.377 26.4175C258.377 20.3978 254.262 15.5179 249.185 15.5179C244.108 15.5179 239.992 20.3978 239.992 26.4175C239.992 32.4371 244.108 37.317 249.185 37.317Z" fill="#FBBEBE"/>
<path d="M307.548 85.8031C307.281 82.8295 306.39 79.9826 304.955 77.5232C305.193 79.2043 305.432 80.8848 305.672 82.5647C305.374 82.6668 305.058 82.6637 304.762 82.5557C304.466 82.4478 304.202 82.2396 304.005 81.9569C303.618 81.3839 303.321 80.7323 303.131 80.0338C302.086 76.9598 300.72 74.0533 299.065 71.3826C293.213 70.8043 287.428 67.928 282.282 64.575C277.134 61.2238 272.316 57.2058 267.237 53.7124C266.356 53.0813 265.439 52.5257 264.491 52.0498C262.902 51.2942 261.118 50.9025 259.611 50.014C259.51 49.9548 259.409 49.892 259.309 49.8274C258.969 49.6079 258.646 49.3512 258.346 49.0607C258.184 48.9045 258.03 48.7367 257.885 48.5582C257.133 47.5213 256.537 46.339 256.123 45.063C255.314 42.9422 255.026 40.3836 254.219 38.2628C254.59 37.8518 255.007 37.5031 255.457 37.2264H255.459C255.524 37.1858 255.59 37.147 255.657 37.11C255.976 36.9317 256.308 36.7877 256.649 36.6796C256.843 36.6186 257.037 36.5688 257.234 36.53C257.242 36.529 257.249 36.5272 257.257 36.5244C258.167 36.3486 259.1 36.436 259.976 36.7794C261.257 37.2929 262.336 38.3182 263.413 39.2881C265.162 40.7491 266.84 42.3269 268.438 44.0137C269.326 45.0223 270.136 46.1308 271.091 47.0471C271.885 47.7733 272.722 48.4309 273.595 49.0145C278.763 52.6649 283.932 56.3147 289.101 59.9639C290.851 61.1998 292.602 62.4357 294.313 63.7436C296.912 65.7314 299.418 67.8854 301.921 70.0376C303.397 71.3049 304.872 72.5729 306.346 73.8414C306.83 74.2073 307.255 74.6728 307.601 75.2158C307.906 75.8324 308.096 76.5199 308.157 77.2313C308.527 80.1056 308.318 83.0429 307.548 85.8031V85.8031Z" fill="#FBBEBE"/>
<path d="M262.399 64.6156C261.779 67.9132 258.968 69.9065 257.499 72.8032C255.673 76.3982 256.417 80.5769 257.103 84.6947C255.85 85.975 254.597 87.2552 253.343 88.5354C252.651 89.2393 251.96 89.9468 251.215 90.5694C250.129 91.4321 248.994 92.2049 247.818 92.8823C246.709 93.5584 245.599 94.2352 244.49 94.9125C243.459 95.6001 242.366 96.1491 241.232 96.5493C239.046 97.2144 236.724 96.7488 234.562 95.9785C234.307 95.8992 234.062 95.7805 233.833 95.6256C233.698 95.5303 233.58 95.404 233.487 95.2543C233.274 94.8011 233.196 94.2756 233.267 93.7635C233.487 89.448 234.376 85.2231 235.263 81.0295C235.737 78.5137 236.374 76.045 237.169 73.6456C237.948 71.5896 238.844 69.5985 239.85 67.6859C240.961 65.2796 242.276 63.0146 243.776 60.9264C244.507 60.1227 245.121 59.1829 245.596 58.1442C246.149 56.6479 245.936 54.9317 246.048 53.3023C246.134 52.0781 246.408 50.8829 246.857 49.7757V49.7738C247.097 49.1774 247.386 48.6106 247.72 48.0816C247.871 48.4991 248.022 48.916 248.173 49.3323C248.273 49.6057 248.372 49.8785 248.469 50.1507C248.597 50.5017 248.724 50.8515 248.85 51.2C249.213 52.2013 249.575 53.2019 249.937 54.202C250.328 55.4616 250.886 56.6395 251.589 57.6917C251.91 58.2305 252.344 58.6613 252.847 58.942C253.351 59.2227 253.907 59.3437 254.462 59.2933C255.017 59.2429 255.552 59.0227 256.013 58.6542C256.475 58.2857 256.848 57.7816 257.097 57.191C257.62 56.0887 258 54.8983 258.222 53.6607C258.529 52.1538 258.572 50.5879 258.346 49.0608C257.971 46.1197 256.916 43.1159 256.149 40.3836C255.837 39.4726 255.657 38.5059 255.615 37.5239C255.616 37.4135 255.626 37.3035 255.643 37.1951C255.648 37.1673 255.652 37.1378 255.657 37.1101C255.976 36.9318 256.308 36.7877 256.649 36.6796C256.843 36.6187 257.037 36.5688 257.234 36.53C257.908 40.8602 258.584 45.1905 259.261 49.5207C259.276 49.6223 259.294 49.7239 259.309 49.8274C259.406 50.4481 259.504 51.0688 259.613 51.6877C259.711 52.2493 259.817 52.8091 259.935 53.3651L259.94 53.3817C259.981 53.5702 260.023 53.7568 260.066 53.9434L260.068 53.9489C260.188 54.4588 260.322 54.9649 260.473 55.4637C261.389 58.4694 262.986 61.4954 262.399 64.6156Z" fill="#6C63FF"/>
<path d="M299.707 110.957C299.678 111.592 299.781 112.226 300.009 112.802C300.584 114.049 301.964 114.332 303.159 114.449C310.137 115.129 317.157 114.875 324.087 113.693C324.463 113.662 324.828 113.528 325.153 113.301C326.138 112.482 325.531 110.486 324.455 109.847C323.379 109.208 322.102 109.362 320.922 109.085C319.749 108.735 318.632 108.161 317.615 107.385C315.221 105.754 312.862 104.054 310.538 102.284C309.154 101.23 307.521 100.106 305.962 100.731C301.741 102.424 299.679 105.558 299.707 110.957Z" fill="#3F3D56"/>
<path d="M248.267 48.7227V48.7245C248.256 48.8021 248.245 48.8778 248.231 48.9536C248.214 49.0792 248.194 49.2067 248.173 49.3323C247.98 50.5053 247.743 51.6729 247.471 52.833C246.723 56.0382 245.721 59.1917 244.727 62.299C242.059 70.6306 239.391 78.9629 236.723 87.2958C236.05 89.3944 235.378 91.4949 234.613 93.551C234.358 94.2364 234.094 94.9273 233.833 95.6256C232.895 98.1251 231.994 100.706 231.695 103.366C231.416 105.117 231.384 106.91 231.6 108.674C231.899 110.418 232.792 112.121 234.189 112.766C234.872 113.081 235.849 113.504 235.662 114.345C235.561 114.807 235.118 115.032 234.721 115.11C234.196 115.209 233.659 115.17 233.149 114.996C232.638 114.821 232.166 114.516 231.767 114.101C231.02 113.316 230.447 112.095 229.454 111.964C228.767 111.875 228.135 112.363 227.505 112.705C224.937 114.096 221.946 113.122 219.249 112.134C219.461 110.839 220.558 109.985 221.647 109.727C222.736 109.466 223.862 109.651 224.973 109.616C225.329 109.638 225.682 109.531 225.984 109.307C226.256 109.012 226.446 108.627 226.53 108.203C227.245 105.688 227.778 103.106 228.121 100.484C228.479 97.7446 228.629 94.9624 229.14 92.256C229.537 90.1445 230.151 88.0994 230.677 86.0267C231.696 81.759 232.532 77.4331 233.183 73.0655C233.512 71.2509 233.748 69.4143 233.889 67.5658C233.978 66.0325 233.935 64.4918 234.06 62.964C234.269 60.9764 234.619 59.0131 235.106 57.0949C235.582 55.0019 236.059 52.91 236.534 50.8194C237.24 47.725 237.997 44.5106 239.786 42.1053C240.407 41.2586 241.169 40.5721 242.023 40.0884C242.877 39.6048 243.806 39.3343 244.752 39.2936C245.106 39.2931 245.46 39.3383 245.807 39.4285C245.864 39.4451 245.922 39.4617 245.98 39.4802C246.357 39.5972 246.719 39.775 247.056 40.0086C247.608 39.5929 247.888 39.7389 248.254 40.3799C248.575 41.0583 248.727 41.8311 248.691 42.6078C248.722 44.6578 248.58 46.7062 248.267 48.7227Z" fill="#FBBEBE"/>
<path d="M248.873 51.1723L248.85 51.2L248.723 51.3496L247.471 52.8331L246.857 49.7757L244.752 39.2936C245.107 39.2931 245.46 39.3383 245.807 39.4285C245.822 39.3084 245.846 39.1903 245.88 39.0756L245.98 39.4802L246.693 42.3584L248.044 47.823L248.267 48.7226V48.7245L248.873 51.1723Z" fill="#6C63FF"/>
<path d="M256.822 17.732C256.821 18.7025 256.659 19.6634 256.344 20.5595C256.03 21.4557 255.57 22.2695 254.99 22.9547C254.78 23.204 254.555 23.4348 254.317 23.6453C253.241 24.6063 251.932 25.1265 250.585 25.1272H243.11C241.458 25.1242 239.875 24.3441 238.708 22.9582C237.541 21.5723 236.885 19.694 236.885 17.7356C236.885 15.7771 237.541 13.8988 238.708 12.5129C239.875 11.127 241.458 10.3469 243.11 10.3439H250.585C252.237 10.349 253.82 11.1288 254.989 12.513C256.157 13.8972 256.816 15.7734 256.822 17.732V17.732Z" fill="#2F2E41"/>
<path d="M263.831 18.289C267.359 18.289 270.219 14.8979 270.219 10.7148C270.219 6.53164 267.359 3.14053 263.831 3.14053C260.303 3.14053 257.443 6.53164 257.443 10.7148C257.443 14.8979 260.303 18.289 263.831 18.289Z" fill="#2F2E41"/>
<path opacity="0.1" d="M263.675 3.14053C263.597 3.14053 263.519 3.14422 263.441 3.14754C265.094 3.21877 266.658 4.04721 267.806 5.45856C268.954 6.86991 269.596 8.75413 269.596 10.7148C269.596 12.6754 268.954 14.5596 267.806 15.971C266.658 17.3823 265.094 18.2108 263.441 18.282C263.519 18.2853 263.597 18.289 263.675 18.289C265.369 18.289 266.994 17.491 268.192 16.0706C269.39 14.6501 270.063 12.7236 270.063 10.7148C270.063 8.70596 269.39 6.77942 268.192 5.35898C266.994 3.93853 265.369 3.14053 263.675 3.14053V3.14053Z" fill="black"/>
<path opacity="0.1" d="M233.292 3.14053C233.37 3.14053 233.448 3.14422 233.526 3.14754C231.873 3.21877 230.308 4.04721 229.161 5.45856C228.013 6.86991 227.371 8.75413 227.371 10.7148C227.371 12.6754 228.013 14.5596 229.161 15.971C230.308 17.3823 231.873 18.2108 233.526 18.282C233.448 18.2853 233.37 18.289 233.292 18.289C231.599 18.2872 229.975 17.4885 228.778 16.0682C227.582 14.648 226.909 12.7224 226.909 10.7148C226.909 8.70712 227.582 6.78159 228.778 5.36133C229.975 3.94108 231.599 3.1423 233.292 3.14053Z" fill="black"/>
<path opacity="0.1" d="M254.316 23.6453C253.241 24.6063 251.932 25.1265 250.585 25.1272H243.11C241.764 25.1265 240.454 24.6063 239.379 23.6453H254.316Z" fill="black"/>
<path d="M302.587 78.5276C302.587 78.5276 304.198 84.0297 305.672 82.5647L304.497 75.3729L302.587 78.5276Z" fill="#FBBEBE"/>
<path d="M498.562 246.316C500.062 246.963 501.669 247.187 503.254 246.972C504.84 246.757 506.362 246.109 507.7 245.077C509.038 244.046 510.156 242.66 510.966 241.029C511.775 239.398 512.254 237.567 512.364 235.679C512.475 233.791 512.214 231.899 511.603 230.151C510.991 228.403 510.046 226.847 508.84 225.606C507.635 224.366 506.204 223.474 504.658 223.001C503.113 222.528 501.496 222.488 499.935 222.882L500.193 229.171L497.683 223.781C495.22 225.153 493.317 227.629 492.393 230.664C492.065 231.727 491.865 232.839 491.8 233.969C491.642 236.619 492.216 239.258 493.437 241.486C494.657 243.714 496.456 245.41 498.562 246.316V246.316Z" fill="#57B894"/>
<path d="M510.98 319.259C510.094 313.91 513.933 309.169 517.724 306.087C521.516 303.005 525.947 299.976 527.24 294.746C529.1 287.229 523.561 280.344 519.251 274.408C516.052 270.002 513.306 265.162 511.069 259.99C510.172 257.916 509.348 255.748 509.112 253.435C508.772 250.102 509.675 246.787 510.584 243.608C513.614 233.02 516.854 222.521 520.304 212.111" stroke="#3F3D56" stroke-miterlimit="10"/>
<path d="M498.987 244.697C500.487 245.344 502.093 245.568 503.679 245.353C505.264 245.138 506.786 244.489 508.125 243.458C509.463 242.427 510.58 241.041 511.39 239.41C512.199 237.779 512.678 235.948 512.789 234.06C512.899 232.172 512.639 230.279 512.027 228.531C511.415 226.784 510.47 225.228 509.265 223.987C508.06 222.746 506.628 221.855 505.083 221.382C503.537 220.909 501.92 220.868 500.359 221.263L500.617 227.552L498.108 222.162C495.645 223.534 493.742 226.01 492.818 229.044C492.489 230.107 492.29 231.22 492.225 232.35C492.066 235 492.641 237.639 493.861 239.867C495.081 242.095 496.881 243.791 498.987 244.697V244.697Z" stroke="#3F3D56" stroke-miterlimit="10"/>
<path d="M509.72 209.939C510.309 208.013 511.297 206.294 512.593 204.94C513.89 203.586 515.452 202.64 517.138 202.19L517.986 208.169L519.559 201.89C521.744 201.928 523.861 202.789 525.606 204.347C527.351 205.905 528.633 208.081 529.267 210.559C529.901 213.038 529.855 215.691 529.134 218.136C528.414 220.581 527.057 222.691 525.258 224.162C523.46 225.633 521.315 226.389 519.131 226.319C516.947 226.25 514.839 225.36 513.11 223.777C511.38 222.194 510.12 220.001 509.511 217.513C508.902 215.026 508.975 212.373 509.72 209.939H509.72Z" fill="#57B894"/>
<path d="M510.286 207.78C510.875 205.854 511.863 204.135 513.159 202.781C514.455 201.427 516.018 200.481 517.704 200.032L518.552 206.01L520.125 199.731C522.31 199.769 524.427 200.63 526.172 202.188C527.917 203.746 529.199 205.922 529.833 208.4C530.467 210.879 530.421 213.532 529.7 215.977C528.98 218.422 527.622 220.533 525.824 222.003C524.026 223.474 521.881 224.23 519.697 224.16C517.513 224.091 515.405 223.201 513.675 221.618C511.946 220.035 510.686 217.842 510.077 215.354C509.468 212.867 509.541 210.215 510.286 207.78H510.286Z" stroke="#3F3D56" stroke-miterlimit="10"/>
<path d="M517.442 274.529C519.82 275.552 522.434 275.502 524.783 274.387C527.133 273.272 529.054 271.172 530.181 268.486C531.308 265.799 531.562 262.715 530.895 259.821C530.227 256.927 528.685 254.426 526.562 252.793L525.353 257.619L524.496 251.569C524.488 251.564 524.479 251.56 524.47 251.557C523.198 251.009 521.847 250.763 520.494 250.834C519.142 250.905 517.814 251.292 516.588 251.971C515.361 252.651 514.26 253.61 513.346 254.794C512.432 255.979 511.724 257.365 511.263 258.874C510.801 260.383 510.595 261.985 510.655 263.588C510.716 265.192 511.043 266.766 511.616 268.219C512.19 269.673 513 270.979 514 272.061C514.999 273.144 516.169 273.982 517.442 274.529H517.442Z" fill="#57B894"/>
<path d="M517.932 272.342C520.311 273.365 522.924 273.315 525.273 272.2C527.623 271.086 529.544 268.985 530.671 266.299C531.799 263.613 532.053 260.529 531.385 257.635C530.718 254.74 529.175 252.239 527.052 250.606L525.844 255.432L524.986 249.382C524.978 249.378 524.969 249.374 524.96 249.371C523.688 248.822 522.337 248.577 520.984 248.648C519.632 248.719 518.305 249.105 517.078 249.785C515.852 250.464 514.75 251.423 513.836 252.608C512.923 253.792 512.215 255.178 511.753 256.687C511.291 258.196 511.085 259.798 511.146 261.402C511.206 263.005 511.533 264.579 512.107 266.033C512.681 267.486 513.49 268.792 514.49 269.875C515.489 270.957 516.659 271.796 517.932 272.342H517.932Z" stroke="#3F3D56" stroke-miterlimit="10"/>
<path d="M506.713 294.82C507.122 297.58 508.319 300.089 510.103 301.926C511.887 303.764 514.149 304.818 516.511 304.912C518.873 305.006 521.19 304.135 523.074 302.444C524.958 300.753 526.295 298.345 526.859 295.625C527.424 292.904 527.182 290.036 526.175 287.502C525.168 284.967 523.457 282.92 521.328 281.704C519.199 280.488 516.782 280.177 514.483 280.823C512.183 281.469 510.141 283.033 508.699 285.252L513.29 293.446L507.017 289.097C506.53 290.949 506.426 292.911 506.713 294.82V294.82Z" fill="#57B894"/>
<path d="M12.6186 324.006C12.0366 320.492 14.5587 317.377 17.0499 315.352C19.5412 313.327 22.4521 311.337 23.3021 307.901C24.5237 302.962 20.8848 298.439 18.0526 294.538C15.9514 291.643 14.1469 288.464 12.677 285.065C12.0379 283.731 11.6027 282.273 11.3912 280.758C11.1679 278.569 11.7611 276.391 12.3587 274.302C14.3496 267.346 16.4782 260.448 18.7445 253.608" stroke="#3F3D56" stroke-miterlimit="10"/>
<path d="M16.8641 294.618C18.427 295.29 20.1439 295.257 21.6875 294.524C23.2312 293.792 24.4936 292.412 25.2341 290.647C25.9747 288.882 26.1416 286.856 25.7031 284.955C25.2646 283.053 24.2513 281.409 22.8564 280.337L22.0622 283.507L21.499 279.533C21.4934 279.53 21.4877 279.527 21.4818 279.525C20.6458 279.165 19.7581 279.003 18.8694 279.049C17.9807 279.096 17.1084 279.35 16.3025 279.796C15.4965 280.243 14.7726 280.873 14.1722 281.651C13.5718 282.429 13.1067 283.34 12.8033 284.332C12.4999 285.323 12.3644 286.376 12.4043 287.43C12.4442 288.483 12.6589 289.517 13.036 290.472C13.4131 291.428 13.9453 292.285 14.6021 292.997C15.259 293.708 16.0276 294.259 16.8641 294.618V294.618Z" fill="#57B894"/>
<path d="M17.1862 293.181C18.7492 293.853 20.4661 293.82 22.0097 293.088C23.5533 292.355 24.8157 290.975 25.5563 289.21C26.2968 287.446 26.4638 285.419 26.0253 283.518C25.5868 281.616 24.5735 279.973 23.1785 278.9L22.3843 282.071L21.8211 278.096C21.8156 278.093 21.8098 278.09 21.8039 278.088C20.9681 277.729 20.0807 277.568 19.1925 277.615C18.3043 277.662 17.4326 277.916 16.6272 278.363C15.0006 279.265 13.7427 280.896 13.1304 282.897C12.518 284.899 12.6013 287.106 13.362 289.035C14.1226 290.964 15.4982 292.455 17.1862 293.181V293.181Z" stroke="#3F3D56" stroke-miterlimit="10"/>
<path d="M9.81513 307.95C10.0839 309.763 10.8702 311.411 12.0423 312.618C13.2144 313.825 14.7009 314.518 16.2526 314.58C17.8042 314.642 19.3267 314.069 20.5646 312.958C21.8025 311.847 22.6806 310.266 23.0516 308.478C23.4226 306.691 23.2639 304.806 22.6022 303.141C21.9405 301.476 20.816 300.131 19.4173 299.332C18.0186 298.533 16.4307 298.329 14.92 298.753C13.4092 299.178 12.0676 300.205 11.1199 301.663L14.1366 307.047L10.0147 304.189C9.69505 305.406 9.62663 306.695 9.81513 307.95V307.95Z" fill="#57B894"/>
<path d="M10.094 306.886C10.3627 308.699 11.1491 310.347 12.3212 311.554C13.4932 312.762 14.9798 313.454 16.5314 313.516C18.0831 313.578 19.6056 313.006 20.8435 311.895C22.0814 310.784 22.9595 309.202 23.3305 307.414C23.7014 305.627 23.5428 303.742 22.8811 302.077C22.2194 300.412 21.0949 299.067 19.6961 298.268C18.2974 297.469 16.7096 297.265 15.1988 297.689C13.6881 298.114 12.3464 299.141 11.3988 300.599L14.4155 305.983L10.2935 303.125C9.97392 304.342 9.9055 305.632 10.094 306.886V306.886Z" stroke="#3F3D56" stroke-miterlimit="10"/>
<path d="M238.147 200.268C242.796 200.268 246.565 194.485 246.565 187.352C246.565 180.218 242.796 174.435 238.147 174.435C233.498 174.435 229.729 180.218 229.729 187.352C229.729 194.485 233.498 200.268 238.147 200.268Z" fill="#2F2E41"/>
<path d="M283.95 200.561C288.599 200.561 292.367 194.779 292.367 187.645C292.367 180.512 288.599 174.729 283.95 174.729C279.301 174.729 275.532 180.512 275.532 187.645C275.532 194.779 279.301 200.561 283.95 200.561Z" fill="#2F2E41"/>
<path d="M277.513 225.806C277.513 231.642 270.64 236.374 262.162 236.374C253.685 236.374 246.812 231.642 246.812 225.806C246.812 220.752 251.967 216.524 258.855 215.491C259.951 215.32 261.056 215.235 262.162 215.239C264.016 215.232 265.864 215.468 267.674 215.943C273.427 217.464 277.513 221.309 277.513 225.806Z" fill="#2F2E41"/>
<path d="M240.128 197.332C244.777 197.332 248.546 191.549 248.546 184.416C248.546 177.283 244.777 171.5 240.128 171.5C235.479 171.5 231.71 177.283 231.71 184.416C231.71 191.549 235.479 197.332 240.128 197.332Z" stroke="#3F3D56" stroke-miterlimit="10"/>
<path d="M285.93 197.626C290.579 197.626 294.348 191.843 294.348 184.71C294.348 177.576 290.579 171.794 285.93 171.794C281.281 171.794 277.513 177.576 277.513 184.71C277.513 191.843 281.281 197.626 285.93 197.626Z" stroke="#3F3D56" stroke-miterlimit="10"/>
<path d="M264.143 233.439C272.621 233.439 279.493 228.707 279.493 222.871C279.493 217.035 272.621 212.303 264.143 212.303C255.666 212.303 248.793 217.035 248.793 222.871C248.793 228.707 255.666 233.439 264.143 233.439Z" stroke="#3F3D56" stroke-miterlimit="10"/>
<path d="M267.857 216.824C267.861 217.562 267.627 218.274 267.203 218.815C267.003 219.074 266.76 219.282 266.489 219.424C266.218 219.566 265.925 219.64 265.629 219.642H260.677C260.067 219.617 259.49 219.306 259.072 218.778C258.655 218.25 258.431 217.547 258.449 216.824C258.446 216.251 258.587 215.691 258.855 215.214C259.951 215.032 261.056 214.942 262.162 214.945C264.018 214.938 265.868 215.19 267.674 215.697C267.796 216.055 267.858 216.438 267.857 216.824V216.824Z" fill="white"/>
<path d="M240.128 183.829C241.495 183.829 242.604 182.515 242.604 180.894C242.604 179.272 241.495 177.958 240.128 177.958C238.76 177.958 237.652 179.272 237.652 180.894C237.652 182.515 238.76 183.829 240.128 183.829Z" fill="white"/>
<path d="M286.178 183.829C287.545 183.829 288.654 182.515 288.654 180.894C288.654 179.272 287.545 177.958 286.178 177.958C284.811 177.958 283.702 179.272 283.702 180.894C283.702 182.515 284.811 183.829 286.178 183.829Z" fill="white"/>
<path opacity="0.3" d="M288.654 211.423C290.021 211.423 291.13 210.108 291.13 208.487C291.13 206.866 290.021 205.552 288.654 205.552C287.286 205.552 286.178 206.866 286.178 208.487C286.178 210.108 287.286 211.423 288.654 211.423Z" fill="#6C63FF"/>
<path opacity="0.3" d="M228.244 211.423C229.611 211.423 230.72 210.108 230.72 208.487C230.72 206.866 229.611 205.552 228.244 205.552C226.876 205.552 225.768 206.866 225.768 208.487C225.768 210.108 226.876 211.423 228.244 211.423Z" fill="#6C63FF"/>
<path d="M45.5723 208.205L56.1953 103.984H163.287V128.532H78.7334L72.417 185.523C82.6572 179.494 94.2852 176.479 107.301 176.479C126.346 176.479 141.467 182.796 152.664 195.429C163.861 207.966 169.46 224.953 169.46 246.391C169.46 267.924 163.622 284.911 151.946 297.353C140.366 309.698 124.145 315.871 103.281 315.871C84.8105 315.871 69.7373 310.751 58.0615 300.511C46.3857 290.271 39.7344 276.106 38.1074 258.019H63.2295C64.8564 269.981 69.1152 279.025 76.0059 285.15C82.8965 291.18 91.9883 294.194 103.281 294.194C115.627 294.194 125.293 289.983 132.279 281.562C139.361 273.14 142.902 261.512 142.902 246.678C142.902 232.705 139.074 221.508 131.418 213.086C123.857 204.568 113.761 200.31 101.128 200.31C89.5479 200.31 80.4561 202.846 73.8525 207.918L66.8184 213.66L45.5723 208.205Z" fill="#3590F0"/>
</g>
<defs>
<clipPath id="clip0">
<rect width="532" height="343" fill="white"/>
</clipPath>
</defs>
</svg>
